<svg aria-hidden="true" style="position:absolute;width:0;height:0;overflow:hidden" xmlns="http://www.w3.org/2000/svg"><defs><symbol id="icon-calendar" viewBox="0 0 32 32"><path fill="none" stroke="#130b7a" style="stroke:var(--color1, #130b7a)" stroke-linejoin="round" stroke-linecap="round" stroke-miterlimit="2.613" stroke-width=".64" d="M2.824 5.822h26.351M29.176 5.822c.673 0 1.224.551 1.224 1.225M30.4 7.047v20.732M30.4 27.779a1.23 1.23 0 0 1-1.224 1.228M29.176 29.006H2.825M2.824 29.006A1.229 1.229 0 0 1 1.6 27.778M1.6 27.779V7.047M1.6 7.047c0-.673.551-1.225 1.224-1.225M7.342 2.994v5.003M7.342 10.608c.674 0 1.224-.553 1.224-1.225 0-.674-.55-1.225-1.224-1.225s-1.224.552-1.224 1.225c0 .672.55 1.225 1.224 1.225M24.659 2.994v5.164M24.659 10.608c.673 0 1.222-.553 1.222-1.225 0-.674-.549-1.225-1.222-1.225-.675 0-1.224.552-1.224 1.225 0 .672.549 1.225 1.224 1.225M4.815 13.616h22.371M5.495 16.735h1.086M6.581 16.735c.375 0 .682.305.682.679M7.262 17.414v1.088M7.262 18.502c0 .373-.306.68-.682.68M6.581 19.182H5.495M5.495 19.182a.683.683 0 0 1-.68-.68M4.815 18.502v-1.088M4.815 17.414c0-.374.306-.679.68-.679M18.385 16.735h1.087M19.472 16.735c.374 0 .68.305.68.679M20.152 17.414v1.088M20.152 18.502c0 .373-.306.68-.68.68M19.472 19.182h-1.087M18.385 19.182a.683.683 0 0 1-.68-.68M17.705 18.502v-1.088M17.705 17.414c0-.374.306-.679.68-.679M24.831 16.735h1.088M25.919 16.735a.68.68 0 0 1 .679.679M26.598 17.414v1.088M26.598 18.502c0 .373-.305.68-.679.68M25.919 19.182h-1.088M24.831 19.182a.682.682 0 0 1-.679-.68M24.151 18.502v-1.088M24.151 17.414a.68.68 0 0 1 .679-.679M5.495 23.027h1.086M6.581 23.027c.375 0 .682.306.682.679M7.262 23.707v1.089M7.262 24.796a.682.682 0 0 1-.682.679M6.581 25.475H5.495M5.495 25.475a.682.682 0 0 1-.68-.679M4.815 24.796v-1.089M4.815 23.707c0-.373.306-.679.68-.679M11.94 23.027h1.087M13.027 23.027c.375 0 .68.306.68.679M13.707 23.707v1.089M13.707 24.796a.682.682 0 0 1-.68.679M13.027 25.475H11.94M11.94 25.475a.682.682 0 0 1-.68-.679M11.259 24.796v-1.089M11.259 23.707c0-.373.307-.679.68-.679M18.385 23.027h1.087M19.472 23.027c.374 0 .68.306.68.679M20.152 23.707v1.089M20.152 24.796a.682.682 0 0 1-.68.679M19.472 25.475h-1.087M18.385 25.475a.682.682 0 0 1-.68-.679M17.705 24.796v-1.089M17.705 23.707c0-.373.306-.679.68-.679M11.517 17.779l.906.832M14.085 16.797l-1.662 1.815M24.591 24.073l.906.831M27.159 23.09l-1.662 1.815"/></symbol><symbol id="icon-cancel" viewBox="0 0 32 32"><path d="M16 0C7.163 0 0 7.163 0 16s7.163 16 16 16 16-7.163 16-16S24.837 0 16 0zm0 29C8.82 29 3 23.18 3 16S8.82 3 16 3s13 5.82 13 13-5.82 13-13 13z"/><path d="m21 8-5 5-5-5-3 3 5 5-5 5 3 3 5-5 5 5 3-3-5-5 5-5z"/></symbol></defs></svg>